<mxfile host="Electron" agent="Mozilla/5.0 (Windows NT 10.0; Win64; x64) AppleWebKit/537.36 (KHTML, like Gecko) draw.io/24.7.5 Chrome/126.0.6478.183 Electron/31.3.0 Safari/537.36" version="24.7.5">
  <diagram name="PÃ¡gina-1" id="G9VKpVjVFx4DaCUlaQKF">
    <mxGraphModel dx="1760" dy="1064" grid="1" gridSize="10" guides="1" tooltips="1" connect="1" arrows="1" fold="1" page="1" pageScale="1" pageWidth="850" pageHeight="1100" math="0" shadow="0">
      <root>
        <mxCell id="0" />
        <mxCell id="1" parent="0" />
        <mxCell id="YQLVZ1mfkx_xQIe-WTQi-8" style="edgeStyle=orthogonalEdgeStyle;rounded=0;orthogonalLoop=1;jettySize=auto;html=1;exitX=0.5;exitY=1;exitDx=0;exitDy=0;exitPerimeter=0;entryX=0.5;entryY=0;entryDx=0;entryDy=0;" edge="1" parent="1" source="YQLVZ1mfkx_xQIe-WTQi-1" target="YQLVZ1mfkx_xQIe-WTQi-2">
          <mxGeometry relative="1" as="geometry" />
        </mxCell>
        <mxCell id="YQLVZ1mfkx_xQIe-WTQi-1" value="INICIO" style="strokeWidth=2;html=1;shape=mxgraph.flowchart.start_1;whiteSpace=wrap;fillColor=#a20025;fontColor=#ffffff;strokeColor=#6F0000;" vertex="1" parent="1">
          <mxGeometry x="160" y="60" width="70" height="40" as="geometry" />
        </mxCell>
        <mxCell id="YQLVZ1mfkx_xQIe-WTQi-9" style="edgeStyle=orthogonalEdgeStyle;rounded=0;orthogonalLoop=1;jettySize=auto;html=1;exitX=0.5;exitY=1;exitDx=0;exitDy=0;entryX=0.5;entryY=0;entryDx=0;entryDy=0;" edge="1" parent="1" source="YQLVZ1mfkx_xQIe-WTQi-2" target="YQLVZ1mfkx_xQIe-WTQi-3">
          <mxGeometry relative="1" as="geometry" />
        </mxCell>
        <mxCell id="YQLVZ1mfkx_xQIe-WTQi-2" value="LONG q&lt;div&gt;FLOAT p&lt;/div&gt;" style="shape=parallelogram;html=1;strokeWidth=2;perimeter=parallelogramPerimeter;whiteSpace=wrap;rounded=1;arcSize=12;size=0.23;fillColor=#008a00;fontColor=#ffffff;strokeColor=#005700;" vertex="1" parent="1">
          <mxGeometry x="145" y="120" width="100" height="60" as="geometry" />
        </mxCell>
        <mxCell id="YQLVZ1mfkx_xQIe-WTQi-10" style="edgeStyle=orthogonalEdgeStyle;rounded=0;orthogonalLoop=1;jettySize=auto;html=1;exitX=0.5;exitY=1;exitDx=0;exitDy=0;entryX=0.5;entryY=0;entryDx=0;entryDy=0;" edge="1" parent="1" source="YQLVZ1mfkx_xQIe-WTQi-3" target="YQLVZ1mfkx_xQIe-WTQi-4">
          <mxGeometry relative="1" as="geometry" />
        </mxCell>
        <mxCell id="YQLVZ1mfkx_xQIe-WTQi-3" value="CANAL AN0" style="rounded=1;whiteSpace=wrap;html=1;absoluteArcSize=1;arcSize=14;strokeWidth=2;fillColor=#0050ef;fontColor=#ffffff;strokeColor=#001DBC;" vertex="1" parent="1">
          <mxGeometry x="152.5" y="210" width="85" height="40" as="geometry" />
        </mxCell>
        <mxCell id="YQLVZ1mfkx_xQIe-WTQi-11" style="edgeStyle=orthogonalEdgeStyle;rounded=0;orthogonalLoop=1;jettySize=auto;html=1;exitX=0.5;exitY=1;exitDx=0;exitDy=0;entryX=0.5;entryY=0;entryDx=0;entryDy=0;" edge="1" parent="1" source="YQLVZ1mfkx_xQIe-WTQi-4" target="YQLVZ1mfkx_xQIe-WTQi-5">
          <mxGeometry relative="1" as="geometry" />
        </mxCell>
        <mxCell id="YQLVZ1mfkx_xQIe-WTQi-4" value="UTILIZAR RELOJ INTERNO" style="rounded=1;whiteSpace=wrap;html=1;absoluteArcSize=1;arcSize=14;strokeWidth=2;fillColor=#0050ef;fontColor=#ffffff;strokeColor=#001DBC;" vertex="1" parent="1">
          <mxGeometry x="141.25" y="270" width="107.5" height="40" as="geometry" />
        </mxCell>
        <mxCell id="YQLVZ1mfkx_xQIe-WTQi-12" style="edgeStyle=orthogonalEdgeStyle;rounded=0;orthogonalLoop=1;jettySize=auto;html=1;exitX=0.5;exitY=1;exitDx=0;exitDy=0;entryX=0.5;entryY=0;entryDx=0;entryDy=0;" edge="1" parent="1" source="YQLVZ1mfkx_xQIe-WTQi-5" target="YQLVZ1mfkx_xQIe-WTQi-6">
          <mxGeometry relative="1" as="geometry" />
        </mxCell>
        <mxCell id="YQLVZ1mfkx_xQIe-WTQi-5" value="INICIALIZAR LCD" style="rounded=1;whiteSpace=wrap;html=1;absoluteArcSize=1;arcSize=14;strokeWidth=2;fillColor=#0050ef;fontColor=#ffffff;strokeColor=#001DBC;" vertex="1" parent="1">
          <mxGeometry x="141.25" y="330" width="107.5" height="40" as="geometry" />
        </mxCell>
        <mxCell id="YQLVZ1mfkx_xQIe-WTQi-6" value="LIMPIAR LCD" style="rounded=1;whiteSpace=wrap;html=1;absoluteArcSize=1;arcSize=14;strokeWidth=2;fillColor=#0050ef;fontColor=#ffffff;strokeColor=#001DBC;" vertex="1" parent="1">
          <mxGeometry x="141.25" y="390" width="107.5" height="40" as="geometry" />
        </mxCell>
        <mxCell id="YQLVZ1mfkx_xQIe-WTQi-19" style="edgeStyle=orthogonalEdgeStyle;rounded=0;orthogonalLoop=1;jettySize=auto;html=1;exitX=0.5;exitY=1;exitDx=0;exitDy=0;exitPerimeter=0;entryX=0.5;entryY=0;entryDx=0;entryDy=0;" edge="1" parent="1" source="YQLVZ1mfkx_xQIe-WTQi-7" target="YQLVZ1mfkx_xQIe-WTQi-14">
          <mxGeometry relative="1" as="geometry" />
        </mxCell>
        <mxCell id="YQLVZ1mfkx_xQIe-WTQi-23" value="SI" style="edgeLabel;html=1;align=center;verticalAlign=middle;resizable=0;points=[];" vertex="1" connectable="0" parent="YQLVZ1mfkx_xQIe-WTQi-19">
          <mxGeometry x="-0.5333" y="-2" relative="1" as="geometry">
            <mxPoint as="offset" />
          </mxGeometry>
        </mxCell>
        <mxCell id="YQLVZ1mfkx_xQIe-WTQi-7" value="TRUE" style="strokeWidth=2;html=1;shape=mxgraph.flowchart.decision;whiteSpace=wrap;fillColor=#fa6800;fontColor=#000000;strokeColor=#C73500;" vertex="1" parent="1">
          <mxGeometry x="147.5" y="460" width="95" height="60" as="geometry" />
        </mxCell>
        <mxCell id="YQLVZ1mfkx_xQIe-WTQi-13" style="edgeStyle=orthogonalEdgeStyle;rounded=0;orthogonalLoop=1;jettySize=auto;html=1;exitX=0.5;exitY=1;exitDx=0;exitDy=0;entryX=0.5;entryY=0;entryDx=0;entryDy=0;entryPerimeter=0;" edge="1" parent="1" source="YQLVZ1mfkx_xQIe-WTQi-6" target="YQLVZ1mfkx_xQIe-WTQi-7">
          <mxGeometry relative="1" as="geometry" />
        </mxCell>
        <mxCell id="YQLVZ1mfkx_xQIe-WTQi-20" style="edgeStyle=orthogonalEdgeStyle;rounded=0;orthogonalLoop=1;jettySize=auto;html=1;exitX=0.5;exitY=1;exitDx=0;exitDy=0;entryX=0.5;entryY=0;entryDx=0;entryDy=0;" edge="1" parent="1" source="YQLVZ1mfkx_xQIe-WTQi-14" target="YQLVZ1mfkx_xQIe-WTQi-15">
          <mxGeometry relative="1" as="geometry" />
        </mxCell>
        <mxCell id="YQLVZ1mfkx_xQIe-WTQi-14" value="SETEAR CANAL 0" style="rounded=1;whiteSpace=wrap;html=1;absoluteArcSize=1;arcSize=14;strokeWidth=2;fillColor=#0050ef;fontColor=#ffffff;strokeColor=#001DBC;" vertex="1" parent="1">
          <mxGeometry x="137.5" y="550" width="115" height="40" as="geometry" />
        </mxCell>
        <mxCell id="YQLVZ1mfkx_xQIe-WTQi-21" style="edgeStyle=orthogonalEdgeStyle;rounded=0;orthogonalLoop=1;jettySize=auto;html=1;exitX=0.5;exitY=1;exitDx=0;exitDy=0;entryX=0.5;entryY=0;entryDx=0;entryDy=0;" edge="1" parent="1" source="YQLVZ1mfkx_xQIe-WTQi-15" target="YQLVZ1mfkx_xQIe-WTQi-16">
          <mxGeometry relative="1" as="geometry" />
        </mxCell>
        <mxCell id="YQLVZ1mfkx_xQIe-WTQi-15" value="DELAY 20 US" style="rounded=1;whiteSpace=wrap;html=1;absoluteArcSize=1;arcSize=14;strokeWidth=2;fillColor=#0050ef;fontColor=#ffffff;strokeColor=#001DBC;" vertex="1" parent="1">
          <mxGeometry x="141.25" y="620" width="107.5" height="40" as="geometry" />
        </mxCell>
        <mxCell id="YQLVZ1mfkx_xQIe-WTQi-22" style="edgeStyle=orthogonalEdgeStyle;rounded=0;orthogonalLoop=1;jettySize=auto;html=1;exitX=0.5;exitY=1;exitDx=0;exitDy=0;entryX=0.5;entryY=0;entryDx=0;entryDy=0;" edge="1" parent="1" source="YQLVZ1mfkx_xQIe-WTQi-16" target="YQLVZ1mfkx_xQIe-WTQi-17">
          <mxGeometry relative="1" as="geometry" />
        </mxCell>
        <mxCell id="YQLVZ1mfkx_xQIe-WTQi-16" value="q = LEER ADC" style="rounded=1;whiteSpace=wrap;html=1;absoluteArcSize=1;arcSize=14;strokeWidth=2;fillColor=#0050ef;fontColor=#ffffff;strokeColor=#001DBC;" vertex="1" parent="1">
          <mxGeometry x="137.5" y="680" width="115" height="40" as="geometry" />
        </mxCell>
        <mxCell id="YQLVZ1mfkx_xQIe-WTQi-30" style="edgeStyle=orthogonalEdgeStyle;rounded=0;orthogonalLoop=1;jettySize=auto;html=1;exitX=0.5;exitY=1;exitDx=0;exitDy=0;entryX=0.5;entryY=0;entryDx=0;entryDy=0;" edge="1" parent="1" source="YQLVZ1mfkx_xQIe-WTQi-17" target="YQLVZ1mfkx_xQIe-WTQi-29">
          <mxGeometry relative="1" as="geometry" />
        </mxCell>
        <mxCell id="YQLVZ1mfkx_xQIe-WTQi-17" value="p = (5.0*q)/1024" style="rounded=1;whiteSpace=wrap;html=1;absoluteArcSize=1;arcSize=14;strokeWidth=2;fillColor=#0050ef;fontColor=#ffffff;strokeColor=#001DBC;" vertex="1" parent="1">
          <mxGeometry x="137.5" y="750" width="115" height="40" as="geometry" />
        </mxCell>
        <mxCell id="YQLVZ1mfkx_xQIe-WTQi-26" value="INICIO" style="strokeWidth=2;html=1;shape=mxgraph.flowchart.start_1;whiteSpace=wrap;fillColor=#a20025;fontColor=#ffffff;strokeColor=#6F0000;" vertex="1" parent="1">
          <mxGeometry x="50" y="510" width="70" height="40" as="geometry" />
        </mxCell>
        <mxCell id="YQLVZ1mfkx_xQIe-WTQi-27" style="edgeStyle=orthogonalEdgeStyle;rounded=0;orthogonalLoop=1;jettySize=auto;html=1;exitX=0;exitY=0.5;exitDx=0;exitDy=0;exitPerimeter=0;entryX=0.5;entryY=0;entryDx=0;entryDy=0;entryPerimeter=0;" edge="1" parent="1" source="YQLVZ1mfkx_xQIe-WTQi-7" target="YQLVZ1mfkx_xQIe-WTQi-26">
          <mxGeometry relative="1" as="geometry" />
        </mxCell>
        <mxCell id="YQLVZ1mfkx_xQIe-WTQi-28" value="NO" style="edgeLabel;html=1;align=center;verticalAlign=middle;resizable=0;points=[];" vertex="1" connectable="0" parent="YQLVZ1mfkx_xQIe-WTQi-27">
          <mxGeometry x="-0.3576" y="2" relative="1" as="geometry">
            <mxPoint as="offset" />
          </mxGeometry>
        </mxCell>
        <mxCell id="YQLVZ1mfkx_xQIe-WTQi-29" value="A" style="ellipse;whiteSpace=wrap;html=1;aspect=fixed;fillColor=#6a00ff;fontColor=#ffffff;strokeColor=#3700CC;" vertex="1" parent="1">
          <mxGeometry x="170" y="810" width="50" height="50" as="geometry" />
        </mxCell>
        <mxCell id="YQLVZ1mfkx_xQIe-WTQi-33" style="edgeStyle=orthogonalEdgeStyle;rounded=0;orthogonalLoop=1;jettySize=auto;html=1;exitX=0;exitY=0.5;exitDx=0;exitDy=0;" edge="1" parent="1" source="YQLVZ1mfkx_xQIe-WTQi-31">
          <mxGeometry relative="1" as="geometry">
            <mxPoint x="200" y="445" as="targetPoint" />
          </mxGeometry>
        </mxCell>
        <mxCell id="YQLVZ1mfkx_xQIe-WTQi-31" value="B" style="ellipse;whiteSpace=wrap;html=1;aspect=fixed;fillColor=#6a00ff;fontColor=#ffffff;strokeColor=#3700CC;" vertex="1" parent="1">
          <mxGeometry x="270" y="420" width="50" height="50" as="geometry" />
        </mxCell>
        <mxCell id="YQLVZ1mfkx_xQIe-WTQi-38" style="edgeStyle=orthogonalEdgeStyle;rounded=0;orthogonalLoop=1;jettySize=auto;html=1;exitX=0.5;exitY=1;exitDx=0;exitDy=0;entryX=0.5;entryY=0;entryDx=0;entryDy=0;" edge="1" parent="1" source="YQLVZ1mfkx_xQIe-WTQi-34" target="YQLVZ1mfkx_xQIe-WTQi-35">
          <mxGeometry relative="1" as="geometry" />
        </mxCell>
        <mxCell id="YQLVZ1mfkx_xQIe-WTQi-34" value="A" style="ellipse;whiteSpace=wrap;html=1;aspect=fixed;fillColor=#6a00ff;fontColor=#ffffff;strokeColor=#3700CC;" vertex="1" parent="1">
          <mxGeometry x="470" y="70" width="50" height="50" as="geometry" />
        </mxCell>
        <mxCell id="YQLVZ1mfkx_xQIe-WTQi-35" value="CURSOR EN LA POSICIÃN (1,1)" style="rounded=1;whiteSpace=wrap;html=1;absoluteArcSize=1;arcSize=14;strokeWidth=2;fillColor=#0050ef;fontColor=#ffffff;strokeColor=#001DBC;" vertex="1" parent="1">
          <mxGeometry x="441.25" y="150" width="107.5" height="40" as="geometry" />
        </mxCell>
        <mxCell id="YQLVZ1mfkx_xQIe-WTQi-36" value="VISUALIZAR &quot;ADC = q&quot; SALTAR AL SIGUIETE LINEA" style="strokeWidth=2;html=1;shape=mxgraph.flowchart.display;whiteSpace=wrap;fillColor=#e3c800;fontColor=#000000;strokeColor=#B09500;" vertex="1" parent="1">
          <mxGeometry x="417.5" y="210" width="155" height="70" as="geometry" />
        </mxCell>
        <mxCell id="YQLVZ1mfkx_xQIe-WTQi-42" style="edgeStyle=orthogonalEdgeStyle;rounded=0;orthogonalLoop=1;jettySize=auto;html=1;exitX=0.5;exitY=1;exitDx=0;exitDy=0;exitPerimeter=0;entryX=0.5;entryY=0;entryDx=0;entryDy=0;" edge="1" parent="1" source="YQLVZ1mfkx_xQIe-WTQi-37" target="YQLVZ1mfkx_xQIe-WTQi-41">
          <mxGeometry relative="1" as="geometry" />
        </mxCell>
        <mxCell id="YQLVZ1mfkx_xQIe-WTQi-37" value="VISUALIZAR &quot;VOLTAJE = p&quot;" style="strokeWidth=2;html=1;shape=mxgraph.flowchart.display;whiteSpace=wrap;fillColor=#e3c800;fontColor=#000000;strokeColor=#B09500;" vertex="1" parent="1">
          <mxGeometry x="432.5" y="310" width="125" height="60" as="geometry" />
        </mxCell>
        <mxCell id="YQLVZ1mfkx_xQIe-WTQi-39" style="edgeStyle=orthogonalEdgeStyle;rounded=0;orthogonalLoop=1;jettySize=auto;html=1;exitX=0.5;exitY=1;exitDx=0;exitDy=0;entryX=0.5;entryY=0;entryDx=0;entryDy=0;entryPerimeter=0;" edge="1" parent="1" source="YQLVZ1mfkx_xQIe-WTQi-35" target="YQLVZ1mfkx_xQIe-WTQi-36">
          <mxGeometry relative="1" as="geometry" />
        </mxCell>
        <mxCell id="YQLVZ1mfkx_xQIe-WTQi-40" style="edgeStyle=orthogonalEdgeStyle;rounded=0;orthogonalLoop=1;jettySize=auto;html=1;exitX=0.5;exitY=1;exitDx=0;exitDy=0;exitPerimeter=0;entryX=0.5;entryY=0;entryDx=0;entryDy=0;entryPerimeter=0;" edge="1" parent="1" source="YQLVZ1mfkx_xQIe-WTQi-36" target="YQLVZ1mfkx_xQIe-WTQi-37">
          <mxGeometry relative="1" as="geometry" />
        </mxCell>
        <mxCell id="YQLVZ1mfkx_xQIe-WTQi-41" value="B" style="ellipse;whiteSpace=wrap;html=1;aspect=fixed;fillColor=#6a00ff;fontColor=#ffffff;strokeColor=#3700CC;" vertex="1" parent="1">
          <mxGeometry x="470" y="390" width="50" height="50" as="geometry" />
        </mxCell>
      </root>
    </mxGraphModel>
  </diagram>
</mxfile>
